<svg width="55" height="55" viewBox="0 0 55 55" fill="none" xmlns="http://www.w3.org/2000/svg">
<g opacity="0.3">
<path d="M40.7107 45.7474H38.3725C37.8047 45.7474 37.3704 46.1816 37.3704 46.7495C37.3704 47.3173 37.8047 47.7516 38.3725 47.7516H40.6773C41.1783 47.7516 41.6126 47.4175 41.7128 46.9499C41.813 46.3152 41.3454 45.7474 40.7107 45.7474ZM31.3579 8.00209H22.0051C22.0051 7.43424 21.5708 7 21.003 7C20.4351 7 20.0009 7.43424 20.0009 8.00209V45.7474H14.3224C13.7546 45.7474 13.3203 46.1816 13.3203 46.7495C13.3203 47.3173 13.7546 47.7516 14.3224 47.7516H33.028C33.5959 47.7516 34.0301 47.3173 34.0301 46.7495C34.0301 46.1816 33.5959 45.7474 33.028 45.7474H22.0051V20.0271H27.6836V24.0355C27.6836 24.6033 28.1178 25.0376 28.6857 25.0376H40.7107C41.1115 25.0376 41.4456 24.8038 41.6126 24.4363C41.7796 24.0689 41.7128 23.6681 41.4456 23.3674L39.9424 21.6305C38.6397 20.1273 38.6397 17.8894 39.9424 16.3862L41.4456 14.6493C41.7128 14.3486 41.7462 13.9478 41.6126 13.5804C41.479 13.2129 41.1115 13.0125 40.7107 13.0125H32.36V9.00418C32.36 8.43633 31.9257 8.00209 31.3579 8.00209ZM22.0051 18.023V10.0063H30.3558V18.023H22.0051ZM38.5061 15.0167L38.4393 15.0835C36.5019 17.3215 36.5019 20.7286 38.4393 22.9666L38.5061 23.0334H29.6877V20.0271H31.3579C31.9257 20.0271 32.36 19.5929 32.36 19.0251V15.0167H38.5061Z" fill="#4154AF"/>
</g>
</svg>
