<svg width="55" height="55" viewBox="0 0 55 55" fill="none" xmlns="http://www.w3.org/2000/svg">
<g opacity="0.3">
<mask id="path-1-inside-1_437_3508" fill="white">
<path d="M15.3404 5C14.3289 5 13.3794 5.4082 12.6636 6.15095L6.10917 12.9523C5.39339 13.695 5 14.6802 5 15.7299V46.6429C5 47.9411 6.02044 49 7.27158 49H22.4421C22.5545 49 22.655 48.9724 22.7497 48.9294C22.8857 48.9693 23.0247 49 23.1726 49H47.4856C48.3197 49 49 48.2941 49 47.4286V45.5011C49 44.0003 48.1984 42.6529 46.9029 41.9838L40.9578 38.9208C41.3778 38.1872 41.7239 37.4076 41.9841 36.6219C42.6289 36.3089 43.185 35.5109 43.463 34.4397C43.8742 32.8438 43.4601 31.4872 42.4781 31.214C42.4603 31.2079 42.4426 31.2048 42.4219 31.1987C42.3627 30.8089 42.2651 30.4222 42.1172 29.971C42.1853 29.9925 42.2503 30.017 42.3065 30.0416C42.5698 30.1551 42.8685 30.1091 43.0844 29.9219C43.3004 29.7316 43.398 29.4339 43.3388 29.1484C42.833 26.7514 41.5908 24.9498 39.8279 23.894C39.8279 23.8878 39.8309 23.8817 39.8309 23.8725V7.35714C39.8309 6.05887 38.8104 5 37.5593 5H15.3404ZM15.6007 6.57143H37.5593C37.9763 6.57143 38.3165 6.92439 38.3165 7.35714V23.2188C37.5386 22.9732 36.6927 22.8412 35.7846 22.8412H35.2877C34.2052 22.8412 32.6227 23.1696 31.5609 23.8817C29.6324 23.9922 28.2689 25.4623 28.0559 27.6875C27.9228 29.041 28.0471 30.0446 28.121 30.6462C28.1417 30.8273 28.1713 31.0544 28.1683 31.1004C28.1624 31.1342 28.1595 31.168 28.1535 31.1987C28.1328 31.2048 28.1151 31.2079 28.0973 31.214C27.1154 31.4872 26.7013 32.8468 27.1124 34.4428C27.3904 35.5109 27.9494 36.3089 28.5913 36.6219C28.8545 37.4199 29.2065 38.2118 29.6324 38.9545L23.7583 41.9869C22.4628 42.6529 21.6582 44.0003 21.6582 45.5011V47.4286H7.27158C6.85453 47.4286 6.51439 47.0756 6.51439 46.6429V16H13.3291C14.5803 16 15.6007 14.9411 15.6007 13.6429V6.57143ZM14.0863 6.96429V13.6429C14.0863 14.0756 13.7462 14.4286 13.3291 14.4286H6.89298C6.9758 14.2997 7.07045 14.1769 7.17989 14.0633L13.7343 7.262C13.8438 7.14844 13.9621 7.05022 14.0863 6.96429ZM13.3291 19.1429C12.9091 19.1429 12.5719 19.4958 12.5719 19.9286C12.5719 20.3613 12.9091 20.7143 13.3291 20.7143H23.9298C24.3498 20.7143 24.687 20.3613 24.687 19.9286C24.687 19.4958 24.3498 19.1429 23.9298 19.1429H13.3291ZM26.9586 19.1429C26.5386 19.1429 26.2014 19.4958 26.2014 19.9286C26.2014 20.3613 26.5386 20.7143 26.9586 20.7143H29.9874C30.4074 20.7143 30.7446 20.3613 30.7446 19.9286C30.7446 19.4958 30.4074 19.1429 29.9874 19.1429H26.9586ZM13.3291 22.2857C12.9091 22.2857 12.5719 22.6387 12.5719 23.0714C12.5719 23.5042 12.9091 23.8571 13.3291 23.8571H25.4442C25.8642 23.8571 26.2014 23.5042 26.2014 23.0714C26.2014 22.6387 25.8642 22.2857 25.4442 22.2857H13.3291ZM35.2877 24.4096H35.7846C38.5561 24.4127 40.594 25.8153 41.5227 28.3044C41.2447 28.329 40.9785 28.4241 40.7655 28.6359C40.5644 28.8354 40.2716 29.2958 40.5614 30.1091C40.8602 30.9501 40.9637 31.4411 40.9933 32.1378C41.0081 32.4202 41.1855 32.6596 41.4281 32.7854C41.6174 32.8898 41.851 32.8929 42.0522 32.8161C42.1084 33.0279 42.1468 33.4545 41.9989 34.0346C41.8008 34.8019 41.4429 35.161 41.3867 35.1917H41.3837C41.0495 35.1917 40.7537 35.4188 40.659 35.7533C39.8664 38.5187 37.7131 41.459 35.2877 41.459C32.8594 41.459 30.7061 38.5187 29.9164 35.7533C29.8188 35.4188 29.5674 35.1978 29.2331 35.1978H29.2302C29.1296 35.1579 28.7747 34.8019 28.5765 34.0346C28.4286 33.4607 28.4671 33.0371 28.5233 32.8223C28.7303 32.9143 28.9669 32.9082 29.171 32.8008C29.4106 32.6719 29.5674 32.4202 29.5821 32.1378C29.594 31.88 29.6176 31.6253 29.659 31.3736C29.7064 31.1127 29.6709 30.8334 29.6236 30.4467C29.5526 29.8758 29.449 29.0165 29.5614 27.841C29.7064 26.3186 30.5227 25.447 31.8094 25.447C31.972 25.447 32.1318 25.3917 32.2619 25.2905C32.8949 24.7963 34.2229 24.4096 35.2877 24.4096ZM13.3291 27C12.9091 27 12.5719 27.353 12.5719 27.7857C12.5719 28.2185 12.9091 28.5714 13.3291 28.5714H23.9298C24.3498 28.5714 24.687 28.2185 24.687 27.7857C24.687 27.353 24.3498 27 23.9298 27H13.3291ZM32.5813 27.046C32.1347 27.0031 31.6851 27.2179 31.4248 27.6261L30.6262 28.8845C30.3955 29.2467 30.4931 29.7347 30.8422 29.971C30.9693 30.06 31.1143 30.103 31.2563 30.103C31.5047 30.103 31.7443 29.9771 31.8922 29.75L32.5636 28.685L33.1374 28.9766C34.5956 29.7132 36.2165 30.103 37.8344 30.103H39.1092C39.5292 30.103 39.8664 29.75 39.8664 29.3172C39.8664 28.8814 39.5292 28.5315 39.1092 28.5315H37.8344C36.4472 28.5315 35.0511 28.197 33.7999 27.5647L33.022 27.1719C32.8801 27.0982 32.7322 27.0583 32.5813 27.046ZM13.3291 30.1429C12.9091 30.1429 12.5719 30.4958 12.5719 30.9286C12.5719 31.3613 12.9091 31.7143 13.3291 31.7143H20.901C21.3211 31.7143 21.6582 31.3613 21.6582 30.9286C21.6582 30.4958 21.3211 30.1429 20.901 30.1429H13.3291ZM40.0912 40.2221L46.2286 43.3895C47.0035 43.7916 47.4856 44.6018 47.4856 45.5011V47.4286H38.1804L37.2487 42.5884C38.3194 42.1066 39.2866 41.2626 40.0912 40.2221ZM30.5109 40.2559C31.3095 41.2779 32.2649 42.1127 33.3267 42.5884L32.395 47.4286H23.1726V45.5011C23.1726 44.6018 23.6547 43.7916 24.4326 43.3895L30.5109 40.2559ZM8.78596 41.1429C8.36596 41.1429 8.02877 41.4958 8.02877 41.9286V43.5C8.02877 43.9328 8.36596 44.2857 8.78596 44.2857C9.20597 44.2857 9.54316 43.9328 9.54316 43.5V41.9286C9.54316 41.4958 9.20597 41.1429 8.78596 41.1429ZM12.5719 41.1429C12.1519 41.1429 11.8147 41.4958 11.8147 41.9286V43.5C11.8147 43.9328 12.1519 44.2857 12.5719 44.2857C12.9919 44.2857 13.3291 43.9328 13.3291 43.5V41.9286C13.3291 41.4958 12.9919 41.1429 12.5719 41.1429ZM16.3579 41.1429C15.9379 41.1429 15.6007 41.4958 15.6007 41.9286V43.5C15.6007 43.9328 15.9379 44.2857 16.3579 44.2857C16.7779 44.2857 17.1151 43.9328 17.1151 43.5V41.9286C17.1151 41.4958 16.7779 41.1429 16.3579 41.1429ZM20.1439 41.1429C19.7239 41.1429 19.3867 41.4958 19.3867 41.9286V43.5C19.3867 43.9328 19.7239 44.2857 20.1439 44.2857C20.5639 44.2857 20.901 43.9328 20.901 43.5V41.9286C20.901 41.4958 20.5639 41.1429 20.1439 41.1429ZM34.6962 43.5H35.8793L36.6365 47.4286H33.939L34.6962 43.5Z"/>
</mask>
<path d="M15.3404 5C14.3289 5 13.3794 5.4082 12.6636 6.15095L6.10917 12.9523C5.39339 13.695 5 14.6802 5 15.7299V46.6429C5 47.9411 6.02044 49 7.27158 49H22.4421C22.5545 49 22.655 48.9724 22.7497 48.9294C22.8857 48.9693 23.0247 49 23.1726 49H47.4856C48.3197 49 49 48.2941 49 47.4286V45.5011C49 44.0003 48.1984 42.6529 46.9029 41.9838L40.9578 38.9208C41.3778 38.1872 41.7239 37.4076 41.9841 36.6219C42.6289 36.3089 43.185 35.5109 43.463 34.4397C43.8742 32.8438 43.4601 31.4872 42.4781 31.214C42.4603 31.2079 42.4426 31.2048 42.4219 31.1987C42.3627 30.8089 42.2651 30.4222 42.1172 29.971C42.1853 29.9925 42.2503 30.017 42.3065 30.0416C42.5698 30.1551 42.8685 30.1091 43.0844 29.9219C43.3004 29.7316 43.398 29.4339 43.3388 29.1484C42.833 26.7514 41.5908 24.9498 39.8279 23.894C39.8279 23.8878 39.8309 23.8817 39.8309 23.8725V7.35714C39.8309 6.05887 38.8104 5 37.5593 5H15.3404ZM15.6007 6.57143H37.5593C37.9763 6.57143 38.3165 6.92439 38.3165 7.35714V23.2188C37.5386 22.9732 36.6927 22.8412 35.7846 22.8412H35.2877C34.2052 22.8412 32.6227 23.1696 31.5609 23.8817C29.6324 23.9922 28.2689 25.4623 28.0559 27.6875C27.9228 29.041 28.0471 30.0446 28.121 30.6462C28.1417 30.8273 28.1713 31.0544 28.1683 31.1004C28.1624 31.1342 28.1595 31.168 28.1535 31.1987C28.1328 31.2048 28.1151 31.2079 28.0973 31.214C27.1154 31.4872 26.7013 32.8468 27.1124 34.4428C27.3904 35.5109 27.9494 36.3089 28.5913 36.6219C28.8545 37.4199 29.2065 38.2118 29.6324 38.9545L23.7583 41.9869C22.4628 42.6529 21.6582 44.0003 21.6582 45.5011V47.4286H7.27158C6.85453 47.4286 6.51439 47.0756 6.51439 46.6429V16H13.3291C14.5803 16 15.6007 14.9411 15.6007 13.6429V6.57143ZM14.0863 6.96429V13.6429C14.0863 14.0756 13.7462 14.4286 13.3291 14.4286H6.89298C6.9758 14.2997 7.07045 14.1769 7.17989 14.0633L13.7343 7.262C13.8438 7.14844 13.9621 7.05022 14.0863 6.96429ZM13.3291 19.1429C12.9091 19.1429 12.5719 19.4958 12.5719 19.9286C12.5719 20.3613 12.9091 20.7143 13.3291 20.7143H23.9298C24.3498 20.7143 24.687 20.3613 24.687 19.9286C24.687 19.4958 24.3498 19.1429 23.9298 19.1429H13.3291ZM26.9586 19.1429C26.5386 19.1429 26.2014 19.4958 26.2014 19.9286C26.2014 20.3613 26.5386 20.7143 26.9586 20.7143H29.9874C30.4074 20.7143 30.7446 20.3613 30.7446 19.9286C30.7446 19.4958 30.4074 19.1429 29.9874 19.1429H26.9586ZM13.3291 22.2857C12.9091 22.2857 12.5719 22.6387 12.5719 23.0714C12.5719 23.5042 12.9091 23.8571 13.3291 23.8571H25.4442C25.8642 23.8571 26.2014 23.5042 26.2014 23.0714C26.2014 22.6387 25.8642 22.2857 25.4442 22.2857H13.3291ZM35.2877 24.4096H35.7846C38.5561 24.4127 40.594 25.8153 41.5227 28.3044C41.2447 28.329 40.9785 28.4241 40.7655 28.6359C40.5644 28.8354 40.2716 29.2958 40.5614 30.1091C40.8602 30.9501 40.9637 31.4411 40.9933 32.1378C41.0081 32.4202 41.1855 32.6596 41.4281 32.7854C41.6174 32.8898 41.851 32.8929 42.0522 32.8161C42.1084 33.0279 42.1468 33.4545 41.9989 34.0346C41.8008 34.8019 41.4429 35.161 41.3867 35.1917H41.3837C41.0495 35.1917 40.7537 35.4188 40.659 35.7533C39.8664 38.5187 37.7131 41.459 35.2877 41.459C32.8594 41.459 30.7061 38.5187 29.9164 35.7533C29.8188 35.4188 29.5674 35.1978 29.2331 35.1978H29.2302C29.1296 35.1579 28.7747 34.8019 28.5765 34.0346C28.4286 33.4607 28.4671 33.0371 28.5233 32.8223C28.7303 32.9143 28.9669 32.9082 29.171 32.8008C29.4106 32.6719 29.5674 32.4202 29.5821 32.1378C29.594 31.88 29.6176 31.6253 29.659 31.3736C29.7064 31.1127 29.6709 30.8334 29.6236 30.4467C29.5526 29.8758 29.449 29.0165 29.5614 27.841C29.7064 26.3186 30.5227 25.447 31.8094 25.447C31.972 25.447 32.1318 25.3917 32.2619 25.2905C32.8949 24.7963 34.2229 24.4096 35.2877 24.4096ZM13.3291 27C12.9091 27 12.5719 27.353 12.5719 27.7857C12.5719 28.2185 12.9091 28.5714 13.3291 28.5714H23.9298C24.3498 28.5714 24.687 28.2185 24.687 27.7857C24.687 27.353 24.3498 27 23.9298 27H13.3291ZM32.5813 27.046C32.1347 27.0031 31.6851 27.2179 31.4248 27.6261L30.6262 28.8845C30.3955 29.2467 30.4931 29.7347 30.8422 29.971C30.9693 30.06 31.1143 30.103 31.2563 30.103C31.5047 30.103 31.7443 29.9771 31.8922 29.75L32.5636 28.685L33.1374 28.9766C34.5956 29.7132 36.2165 30.103 37.8344 30.103H39.1092C39.5292 30.103 39.8664 29.75 39.8664 29.3172C39.8664 28.8814 39.5292 28.5315 39.1092 28.5315H37.8344C36.4472 28.5315 35.0511 28.197 33.7999 27.5647L33.022 27.1719C32.8801 27.0982 32.7322 27.0583 32.5813 27.046ZM13.3291 30.1429C12.9091 30.1429 12.5719 30.4958 12.5719 30.9286C12.5719 31.3613 12.9091 31.7143 13.3291 31.7143H20.901C21.3211 31.7143 21.6582 31.3613 21.6582 30.9286C21.6582 30.4958 21.3211 30.1429 20.901 30.1429H13.3291ZM40.0912 40.2221L46.2286 43.3895C47.0035 43.7916 47.4856 44.6018 47.4856 45.5011V47.4286H38.1804L37.2487 42.5884C38.3194 42.1066 39.2866 41.2626 40.0912 40.2221ZM30.5109 40.2559C31.3095 41.2779 32.2649 42.1127 33.3267 42.5884L32.395 47.4286H23.1726V45.5011C23.1726 44.6018 23.6547 43.7916 24.4326 43.3895L30.5109 40.2559ZM8.78596 41.1429C8.36596 41.1429 8.02877 41.4958 8.02877 41.9286V43.5C8.02877 43.9328 8.36596 44.2857 8.78596 44.2857C9.20597 44.2857 9.54316 43.9328 9.54316 43.5V41.9286C9.54316 41.4958 9.20597 41.1429 8.78596 41.1429ZM12.5719 41.1429C12.1519 41.1429 11.8147 41.4958 11.8147 41.9286V43.5C11.8147 43.9328 12.1519 44.2857 12.5719 44.2857C12.9919 44.2857 13.3291 43.9328 13.3291 43.5V41.9286C13.3291 41.4958 12.9919 41.1429 12.5719 41.1429ZM16.3579 41.1429C15.9379 41.1429 15.6007 41.4958 15.6007 41.9286V43.5C15.6007 43.9328 15.9379 44.2857 16.3579 44.2857C16.7779 44.2857 17.1151 43.9328 17.1151 43.5V41.9286C17.1151 41.4958 16.7779 41.1429 16.3579 41.1429ZM20.1439 41.1429C19.7239 41.1429 19.3867 41.4958 19.3867 41.9286V43.5C19.3867 43.9328 19.7239 44.2857 20.1439 44.2857C20.5639 44.2857 20.901 43.9328 20.901 43.5V41.9286C20.901 41.4958 20.5639 41.1429 20.1439 41.1429ZM34.6962 43.5H35.8793L36.6365 47.4286H33.939L34.6962 43.5Z" stroke="#4154AF" stroke-width="2.85443" mask="url(#path-1-inside-1_437_3508)"/>
</g>
</svg>
