<svg width="55" height="55" viewBox="0 0 55 55" fill="none" xmlns="http://www.w3.org/2000/svg">
<g opacity="0.3">
<path d="M16.5649 8.00057C15.1727 7.98679 12.6846 8.20389 10.107 10.5506C6.59896 13.7417 5.02412 18.9107 5 27.3018C5.02412 35.6894 6.59896 40.855 10.107 44.046C12.6192 46.3376 15.0555 46.5961 16.4649 46.5961C16.7027 46.5961 16.9129 46.5892 17.0921 46.5823L17.1851 46.5788C18.2121 46.5444 19.3113 45.9723 20.1935 45.004C20.421 44.749 20.6174 44.5112 20.7621 44.332C21.6409 43.3844 21.6925 42.8468 21.0378 41.4442L20.3003 39.897C19.5491 38.3084 18.5153 36.1374 18.4016 35.8582C18.281 35.5619 17.9157 34.6659 16.9818 34.4144C16.3719 34.2248 15.9825 34.2145 15.4483 34.1973L15.3208 34.1938C15.0555 34.1869 14.8074 34.1904 14.5593 34.1938C14.2595 34.1973 13.9597 34.2041 13.5772 34.18C13.0189 34.1593 12.919 34.1318 12.8052 33.7803C12.7088 33.4632 11.8473 30.5962 11.8748 27.3052V27.2914C11.8507 24.0005 12.7088 21.1299 12.8052 20.8198C12.919 20.4614 13.0189 20.4373 13.6254 20.4132C13.9597 20.3925 14.2595 20.3994 14.5593 20.4028C14.8074 20.4063 15.0555 20.4097 15.3243 20.3994L15.4483 20.3959C15.9825 20.3821 16.3719 20.3718 16.9543 20.1892C17.9157 19.9273 18.281 19.0313 18.4016 18.7384C18.5153 18.4593 19.5491 16.2848 20.3038 14.6996L21.0378 13.1489C21.696 11.7498 21.6409 11.2088 20.7931 10.2991C20.6174 10.0854 20.4244 9.84764 20.1935 9.59608C19.3148 8.6243 18.2155 8.05226 17.1886 8.0178L17.0921 8.01436C16.9405 8.00747 16.7647 8.00402 16.5649 8.00057ZM44.0779 8.00057C42.6857 7.98679 40.1977 8.20389 37.6201 10.5506C34.1086 13.7451 32.5337 18.9107 32.5131 27.3018C32.5337 35.6859 34.1086 40.8515 37.6166 44.046C40.1357 46.3376 42.5686 46.5961 43.978 46.5961C44.2192 46.5961 44.4294 46.5892 44.6052 46.5823L44.6982 46.5788C45.7251 46.5444 46.821 45.9723 47.7066 45.0005C47.9375 44.749 48.1304 44.5112 48.2717 44.332C49.1574 43.3844 49.209 42.8468 48.5509 41.4442L47.8065 39.8763C47.0553 38.298 46.0284 36.1339 45.9146 35.8582C45.794 35.5619 45.4288 34.6659 44.4949 34.4144C43.8849 34.2248 43.499 34.2145 42.958 34.1973L42.8339 34.1938C42.5686 34.1835 42.317 34.1904 42.0723 34.1938C41.7725 34.1973 41.4727 34.2041 41.0902 34.18C40.532 34.1593 40.432 34.1318 40.3218 33.7803C40.2253 33.4632 39.3638 30.5962 39.3879 27.3052V27.2914C39.3638 24.0005 40.2253 21.1299 40.3218 20.8198C40.432 20.4614 40.532 20.4373 41.1385 20.4132C41.4762 20.3925 41.776 20.3994 42.0723 20.4028C42.3204 20.4063 42.5686 20.4097 42.8339 20.3994L42.9614 20.3959C43.499 20.3821 43.8849 20.3718 44.4708 20.1892C45.4288 19.9273 45.7975 19.0313 45.9181 18.7384C46.0284 18.4593 47.0553 16.2986 47.8065 14.7203L48.5509 13.1489C49.209 11.7498 49.1574 11.2088 48.3062 10.2991C48.1304 10.0854 47.9375 9.84764 47.7066 9.59608C46.8244 8.6243 45.7251 8.05226 44.7051 8.0178L44.6052 8.01436C44.457 8.00747 44.2778 8.00402 44.0779 8.00057ZM16.4649 9.37898C16.6786 9.37898 16.875 9.38588 17.0439 9.39277L17.1438 9.39621C17.5229 9.41 17.9398 9.57196 18.3499 9.83386C18.3465 9.84075 18.343 9.84075 18.343 9.8442L14.001 19.021C13.8494 19.0244 13.6943 19.0279 13.5289 19.0382C12.9638 19.0589 11.9127 19.0968 11.4923 20.4063C11.3889 20.744 10.4688 23.7972 10.4964 27.2983C10.4688 30.7995 11.3889 33.8527 11.4923 34.1973C11.9093 35.4999 12.9638 35.5378 13.5392 35.5584C13.7012 35.5688 13.8494 35.5722 14.001 35.5757L18.343 44.7559C18.343 44.7559 18.343 44.7593 18.3465 44.7662C17.9364 45.0281 17.5194 45.1866 17.1369 45.2004L17.0404 45.2073C15.9136 45.2452 13.5634 45.3314 11.0305 43.0294C8.88022 41.0652 6.40598 37.5054 6.37841 27.3018C6.40598 17.0912 8.88022 13.5314 11.034 11.5707C13.1878 9.60642 15.214 9.37898 16.4649 9.37898ZM43.978 9.37898C44.1951 9.37898 44.3881 9.38588 44.5569 9.39277L44.6534 9.39621C45.0359 9.41 45.4529 9.57196 45.8595 9.83386C45.8595 9.84075 45.8561 9.84075 45.8526 9.8442L41.5141 19.0244C41.3625 19.0244 41.2074 19.0279 41.0454 19.0382C40.4803 19.0589 39.4223 19.0968 39.0054 20.4063C38.902 20.744 37.9853 23.7972 38.0095 27.2983C37.9853 30.7995 38.902 33.8527 39.0054 34.1973C39.4223 35.4999 40.4768 35.5378 41.0523 35.5584C41.2143 35.5688 41.3659 35.5722 41.5141 35.5757L45.8561 44.7559C45.8561 44.7559 45.8595 44.7593 45.8595 44.7662C45.4529 45.0281 45.0359 45.1866 44.6534 45.2004L44.5569 45.2073C43.4266 45.2487 41.0764 45.3314 38.5471 43.0294C36.3967 41.0652 33.919 37.5054 33.8915 27.3018C33.919 17.0912 36.3967 13.5314 38.5471 11.5707C40.7043 9.60642 42.7236 9.37898 43.978 9.37898ZM19.4113 10.7987C19.525 10.9331 19.6387 11.0675 19.7524 11.2054C20.2004 11.6878 20.2004 11.6878 19.7903 12.5597L19.0563 14.1069C18.0329 16.2572 17.2472 17.9251 17.1231 18.218C16.9646 18.6074 16.8061 18.8004 16.5683 18.8659C16.1789 18.9865 15.9342 19.0037 15.5276 19.0175L19.4113 10.7987ZM46.9243 10.7987C47.0415 10.9331 47.1518 11.0675 47.2655 11.2054C47.7135 11.6878 47.7135 11.6878 47.3034 12.5597L46.5625 14.1276C45.5425 16.2676 44.7568 17.9251 44.6396 18.218C44.4777 18.6074 44.3191 18.8004 44.0814 18.8659C43.6954 18.9865 43.4473 19.0037 43.0407 19.0175L46.9243 10.7987ZM25.621 21.7847C25.4453 21.7847 25.2695 21.8536 25.1351 21.988C24.8629 22.2568 24.8629 22.691 25.1351 22.9598L28.781 26.6091H19.4182C19.0357 26.6091 18.729 26.9158 18.729 27.2983C18.729 27.6808 19.0357 27.9875 19.4182 27.9875H28.781L25.1351 31.6369C24.8629 31.9056 24.8629 32.3398 25.1351 32.6086C25.2695 32.743 25.4418 32.812 25.621 32.812C25.8002 32.812 25.9725 32.743 26.1069 32.6086L30.9313 27.7842C31.2036 27.5154 31.2036 27.0812 30.9313 26.8124L26.1069 21.988C25.9725 21.8536 25.7968 21.7847 25.621 21.7847ZM42.572 22.7806C42.3067 22.8185 42.0723 23.008 42 23.2837C41.9 23.649 42.1206 24.0315 42.4893 24.128L43.8195 24.4864C43.878 24.5001 43.9401 24.5105 43.9987 24.5105C44.3019 24.5105 44.581 24.3072 44.6637 24.0005C44.7637 23.6317 44.5431 23.2527 44.1744 23.1527L42.8442 22.7978C42.7512 22.7737 42.6616 22.7668 42.572 22.7806ZM13.9045 26.6091C13.522 26.6091 13.2153 26.9158 13.2153 27.2983C13.2153 27.6808 13.522 27.9875 13.9045 27.9875H16.6613C17.0439 27.9875 17.3506 27.6808 17.3506 27.2983C17.3506 26.9158 17.0439 26.6091 16.6613 26.6091H13.9045ZM42.1619 26.6091C41.7794 26.6091 41.4727 26.9158 41.4727 27.2983C41.4727 27.6808 41.7794 27.9875 42.1619 27.9875H43.5403C43.9228 27.9875 44.2295 27.6808 44.2295 27.2983C44.2295 26.9158 43.9228 26.6091 43.5403 26.6091H42.1619ZM44.0917 30.093C44.0021 30.0793 43.9125 30.0861 43.8195 30.1103L42.4893 30.4687C42.1206 30.5651 41.9 30.9442 42 31.3129C42.0827 31.6196 42.3618 31.8229 42.6651 31.8229C42.7236 31.8229 42.7822 31.8126 42.8442 31.7988L44.1744 31.4404C44.5431 31.3405 44.7637 30.9649 44.6637 30.5962C44.5914 30.3205 44.3605 30.1309 44.0917 30.093ZM15.5276 35.5791C15.9342 35.5929 16.1823 35.6101 16.5924 35.7376C16.8061 35.7962 16.9646 35.9857 17.1231 36.3786C17.2472 36.6715 18.0329 38.3394 19.0563 40.4897L19.7903 42.0335C20.2004 42.9088 20.2004 42.9088 19.7214 43.4257C19.6249 43.5429 19.5215 43.6704 19.4113 43.7979L15.5276 35.5791ZM43.0407 35.5791C43.4473 35.5929 43.6954 35.6101 44.1089 35.7376C44.3191 35.7962 44.4777 35.9857 44.6396 36.3786C44.7568 36.6715 45.5425 38.329 46.5591 40.469L47.3 42.0335C47.7169 42.9088 47.7135 42.9088 47.2345 43.4257C47.1414 43.5429 47.0346 43.6704 46.9243 43.7979L43.0407 35.5791Z" fill="#4154AF"/>
</g>
</svg>
